<svg width="52" height="52" viewBox="0 0 52 52" fill="none" xmlns="http://www.w3.org/2000/svg">
<path d="M25.9267 10.915C21.847 10.915 18.5397 14.2223 18.5397 18.302C18.5397 22.3818 21.847 25.689 25.9267 25.689C30.0064 25.689 33.3137 22.3818 33.3137 18.302C33.3137 14.2223 30.0064 10.915 25.9267 10.915ZM25.9267 15.1362C27.6751 15.1362 29.0926 16.5536 29.0926 18.302C29.0926 20.0505 27.6751 21.4679 25.9267 21.4679C24.1782 21.4679 22.7608 20.0505 22.7608 18.302C22.7608 16.5536 24.1782 15.1362 25.9267 15.1362ZM12.208 17.2467C9.2939 17.2468 6.93156 19.6091 6.93156 22.5232C6.93156 24.5071 8.05017 26.2167 9.6542 27.1242C10.414 27.5463 11.2793 27.7996 12.208 27.7996C13.1366 27.7996 14.002 27.5463 14.7618 27.1242C15.5427 26.681 16.197 26.0478 16.6824 25.288C15.1417 23.283 14.3186 20.8347 14.3186 18.302C14.3186 18.1121 14.3186 17.901 14.3186 17.7111C13.6854 17.4156 12.9678 17.2467 12.208 17.2467ZM39.6454 17.2467C38.8856 17.2467 38.168 17.4156 37.5348 17.7111C37.5348 17.901 37.5348 18.1121 37.5348 18.302C37.5348 20.8347 36.7117 23.283 35.171 25.288C35.4243 25.689 35.6986 26.0056 36.0152 26.3222C36.3529 26.6388 36.6906 26.9132 37.0916 27.1242C37.8514 27.5463 38.7168 27.7996 39.6454 27.7996C40.5741 27.7996 41.4394 27.5463 42.1992 27.1242C43.8032 26.2167 44.9218 24.5071 44.9218 22.5232C44.9218 19.6091 42.5595 17.2467 39.6454 17.2467ZM25.9267 29.9102C20.988 29.9102 11.1527 32.3795 11.1527 37.2972V40.463H40.7007V37.2972C40.7007 32.3795 30.8654 29.9102 25.9267 29.9102ZM10.5406 31.071C6.46724 31.5564 0.599854 33.6248 0.599854 37.2972V40.463H6.93156V36.3896C6.93156 34.2579 8.38786 32.4851 10.5406 31.071ZM41.3128 31.071C43.4655 32.4851 44.9218 34.2579 44.9218 36.3896V40.463H51.2535V37.2972C51.2535 33.6248 45.3862 31.5564 41.3128 31.071ZM25.9267 34.1313C29.1559 34.1313 32.7649 35.1866 34.8544 36.2419H16.999C19.0884 35.1866 22.6975 34.1313 25.9267 34.1313Z" fill="#A5193B"/>
</svg>
