<svg width="41" height="54" viewBox="0 0 41 54" fill="none" xmlns="http://www.w3.org/2000/svg">
<path d="M20.0751 40.5374C22.8434 40.5374 25.0876 38.2932 25.0876 35.5248C25.0876 32.7429 22.832 30.5123 20.0751 30.5123C17.3067 30.5123 15.0626 32.7565 15.0626 35.5248C15.0626 38.2932 17.3067 40.5374 20.0751 40.5374ZM35.1126 17.9811C37.881 17.9811 40.1251 20.2252 40.1251 22.9936V48.0561C40.1251 50.8245 37.881 53.0686 35.1126 53.0686H5.03754C2.2692 53.0686 0.0250244 50.8245 0.0250244 48.0561V22.9936C0.0250244 20.2116 2.28065 17.9811 5.03754 17.9811H7.54379V12.9685C7.54379 6.0477 13.1542 0.437255 20.0751 0.437256C26.9959 0.437256 32.6064 6.0477 32.6064 12.9685V17.9811H35.1126ZM20.0751 5.44977C15.9226 5.44977 12.5563 8.81604 12.5563 12.9685V17.9811H27.5938V12.9685C27.5938 8.81604 24.2276 5.44977 20.0751 5.44977Z" fill="#59031B"/>
</svg>
