<svg width="15" height="19" viewBox="0 0 15 19" fill="none" xmlns="http://www.w3.org/2000/svg">
<path d="M7.23456 14.3519C8.17663 14.3519 8.94032 13.5882 8.94032 12.6461C8.94032 11.6994 8.17273 10.9404 7.23456 10.9404C6.29249 10.9404 5.52879 11.7041 5.52879 12.6461C5.52879 13.5882 6.29249 14.3519 7.23456 14.3519ZM12.3519 6.67594C13.2939 6.67594 14.0576 7.43964 14.0576 8.38171V16.9105C14.0576 17.8526 13.2939 18.6163 12.3519 18.6163H2.11726C1.1752 18.6163 0.411499 17.8526 0.411499 16.9105V8.38171C0.411499 7.43501 1.17909 6.67594 2.11726 6.67594H2.97015V4.97018C2.97015 2.61501 4.87939 0.705764 7.23456 0.705765C9.58973 0.705765 11.499 2.61501 11.499 4.97018V6.67594H12.3519ZM7.23456 2.41153C5.82146 2.41153 4.67591 3.55708 4.67591 4.97018V6.67594H9.79321V4.97018C9.79321 3.55707 8.64766 2.41153 7.23456 2.41153Z" fill="white"/>
</svg>
