<svg width="62" height="60" viewBox="0 0 62 60" fill="none" xmlns="http://www.w3.org/2000/svg">
<path d="M30.8529 0.998535C26.9759 0.998535 23.5263 3.44075 22.2441 7.10408H3.37797V13.2096H9.33088L0.325193 34.5791C-1.10961 40.6846 3.37797 43.7374 11.0099 43.7374C18.6418 43.7374 23.4042 40.6846 21.6946 34.5791L12.6889 13.2096H22.2136C23.221 15.8045 25.2053 17.7888 27.8002 18.7962V52.8957H0.325193V59.0013H61.3807V52.8957H33.9057V18.7657C36.5006 17.7888 38.4849 15.8045 39.4618 13.2096H49.017L40.0113 34.5791C38.5765 40.6846 43.064 43.7374 50.696 43.7374C58.3279 43.7374 63.0902 40.6846 61.3807 34.5791L52.375 13.2096H58.3279V7.10408H39.4923C38.1796 3.44075 34.73 0.998535 30.8529 0.998535ZM30.8529 7.10408C32.5389 7.10408 33.9057 8.47086 33.9057 10.1569C33.9057 11.8429 32.5389 13.2096 30.8529 13.2096C29.1669 13.2096 27.8002 11.8429 27.8002 10.1569C27.8002 8.47086 29.1669 7.10408 30.8529 7.10408ZM11.0099 23.1312L15.5891 34.5791H6.43074L11.0099 23.1312ZM50.696 23.1312L55.2751 34.5791H46.1168L50.696 23.1312Z" fill="#59031B"/>
</svg>
