<svg width="26" height="19" viewBox="0 0 26 19" fill="none" xmlns="http://www.w3.org/2000/svg">
<path d="M16.1747 11.6026C13.199 11.6026 7.25888 13.0849 7.25888 16.0605V18.2895C7.25888 18.2895 8.77051 18.2895 13.2284 18.2895C17.6863 18.2895 25.0905 18.2895 25.0905 18.2895V16.0605C25.0905 13.0849 19.1503 11.6026 16.1747 11.6026ZM6.1444 7.14473V3.8013H3.91545V7.14473H0.572021V9.37369H3.91545V12.7171H6.1444V9.37369H9.48783V7.14473M16.1747 9.37369C18.6367 9.37369 20.6326 7.37781 20.6326 4.91578C20.6326 2.45375 18.6367 0.457874 16.1747 0.457874C13.7127 0.457874 11.7168 2.45375 11.7168 4.91578C11.7168 7.37781 13.7127 9.37368 16.1747 9.37369Z" fill="white"/>
</svg>
